<?xml version="1.0" standalone="no"?>
<!DOCTYPE svg PUBLIC "-//W3C//DTD SVG 20010904//EN"
 "http://www.w3.org/TR/2001/REC-SVG-20010904/DTD/svg10.dtd">
<svg version="1.0" xmlns="http://www.w3.org/2000/svg"
 width="225.000000pt" height="225.000000pt" viewBox="0 0 225.000000 225.000000"
 preserveAspectRatio="xMidYMid meet">
<metadata>
Created by potrace 1.16, written by Peter Selinger 2001-2019
</metadata>
<g transform="translate(0.000000,225.000000) scale(0.100000,-0.100000)"
fill="#000000" stroke="none">
<path d="M308 2234 c-15 -8 -32 -23 -38 -34 -6 -11 -10 -127 -10 -299 l0 -281
28 -31 c26 -29 34 -32 105 -37 42 -2 77 -6 77 -9 0 -2 -18 -39 -40 -83 -22
-44 -40 -84 -40 -90 0 -30 43 -13 197 77 l168 98 202 5 203 5 32 33 33 32 3
258 c4 289 -1 322 -51 352 -30 19 -53 20 -437 20 -338 -1 -410 -3 -432 -16z
m277 -279 c14 -13 25 -36 25 -50 0 -35 -50 -85 -85 -85 -38 0 -75 41 -75 84 0
68 86 101 135 51z m210 0 c45 -44 25 -117 -34 -130 -32 -7 -68 7 -88 34 -35
45 7 121 67 121 19 0 40 -9 55 -25z m212 3 c33 -31 32 -90 -3 -117 -15 -12
-38 -21 -51 -21 -28 0 -83 50 -83 75 0 22 27 72 42 78 31 13 73 6 95 -15z"/>
<path d="M1325 1958 c-2 -7 -6 -94 -7 -193 -3 -201 -7 -213 -85 -273 l-36 -27
-195 -3 -195 -3 -44 -30 c-47 -33 -50 -43 -29 -94 25 -58 51 -65 260 -65 l184
0 176 -101 c223 -129 235 -127 160 23 -19 37 -34 70 -34 73 0 3 30 5 66 5 70
0 99 10 126 44 16 19 18 51 18 303 l0 283 -29 32 -29 33 -151 3 c-120 3 -152
1 -156 -10z"/>
<path d="M345 1174 c-105 -25 -155 -73 -176 -172 -9 -39 -22 -66 -41 -84 -20
-18 -28 -36 -28 -60 0 -36 31 -95 55 -105 9 -3 25 -23 36 -44 10 -21 39 -61
64 -89 37 -42 44 -55 39 -78 -15 -64 -27 -76 -90 -93 -123 -33 -146 -62 -180
-226 -27 -131 -25 -159 12 -194 l26 -24 324 -3 c358 -3 369 -1 394 59 14 34 5
117 -26 236 -23 88 -72 136 -153 149 -57 9 -89 39 -97 89 -5 36 -2 44 35 84
22 24 50 63 63 87 13 25 31 47 41 50 24 8 47 56 47 100 0 26 -8 46 -30 71 -16
18 -30 41 -30 51 0 66 -57 153 -115 178 -34 14 -139 25 -170 18z"/>
<path d="M1781 1170 c-83 -18 -142 -82 -161 -176 -7 -31 -20 -60 -35 -74 -18
-17 -25 -34 -25 -62 0 -46 23 -94 47 -102 10 -3 28 -25 41 -50 13 -24 41 -63
63 -87 37 -40 40 -48 35 -84 -8 -50 -40 -80 -97 -89 -55 -9 -103 -38 -128 -79
-20 -33 -61 -216 -61 -272 0 -37 35 -81 72 -90 12 -3 166 -5 340 -3 l316 3 26
24 c37 35 39 63 12 194 -34 164 -57 193 -180 226 -63 17 -75 29 -90 93 -5 22
2 36 39 78 24 27 52 65 61 83 9 17 29 42 44 54 56 45 65 136 17 168 -16 10
-27 32 -35 73 -16 76 -57 134 -111 155 -52 21 -134 28 -190 17z"/>
</g>
</svg>
