<?xml version="1.0" standalone="no"?>
<!DOCTYPE svg PUBLIC "-//W3C//DTD SVG 20010904//EN"
 "http://www.w3.org/TR/2001/REC-SVG-20010904/DTD/svg10.dtd">
<svg version="1.0" xmlns="http://www.w3.org/2000/svg"
 width="1263.000000pt" height="1013.000000pt" viewBox="0 0 1263.000000 1013.000000"
 preserveAspectRatio="xMidYMid meet">

<g transform="translate(0.000000,1013.000000) scale(0.100000,-0.100000)"
fill="#000000" stroke="none">
<path d="M4505 9906 c-27 -8 -90 -23 -140 -34 -49 -12 -139 -33 -200 -47 -122
-29 -237 -56 -365 -86 -47 -11 -123 -29 -170 -40 -47 -11 -121 -29 -165 -39
-44 -10 -120 -28 -170 -40 -49 -12 -127 -30 -172 -41 -46 -10 -121 -28 -168
-39 -47 -11 -122 -29 -167 -39 -46 -11 -121 -29 -168 -40 -47 -11 -134 -31
-195 -45 -60 -15 -166 -40 -235 -56 -69 -16 -172 -41 -230 -54 -58 -14 -154
-36 -215 -51 -60 -14 -150 -35 -200 -46 -208 -48 -260 -64 -260 -79 0 -15 31
-23 140 -40 33 -4 238 -36 455 -70 454 -71 479 -75 580 -90 41 -6 100 -15 130
-20 30 -5 89 -14 130 -20 396 -60 595 -92 598 -95 2 -2 -27 -23 -65 -47 -458
-298 -755 -815 -913 -1589 -37 -183 -70 -401 -63 -413 13 -21 459 7 808 49
105 13 191 22 193 21 1 -2 -24 -29 -56 -62 -158 -159 -225 -301 -202 -423 14
-73 40 -119 121 -210 179 -202 493 -411 996 -664 111 -56 199 -105 197 -109
-3 -4 -24 -5 -47 -3 -23 2 -280 9 -570 15 -1065 22 -1470 -30 -1662 -211 -86
-82 -91 -128 -25 -241 31 -51 56 -78 112 -118 189 -138 490 -256 928 -364 320
-78 491 -117 730 -166 58 -12 153 -33 213 -46 59 -13 116 -24 127 -24 10 0 21
-4 24 -8 4 -7 -15 -248 -29 -372 -4 -30 -18 -120 -31 -199 -21 -123 -29 -148
-50 -167 -13 -13 -24 -27 -24 -32 0 -5 -16 -22 -35 -36 l-34 -27 -63 32 c-150
75 -237 146 -488 398 -456 457 -490 481 -1020 728 -30 15 -115 55 -189 90 -73
34 -135 63 -137 63 -15 0 -180 89 -248 134 -155 102 -224 216 -246 405 -8 70
5 240 25 321 7 32 -25 -32 -65 -130 -18 -41 -38 -88 -45 -105 -7 -16 -30 -68
-50 -115 -20 -47 -50 -114 -67 -150 -17 -36 -56 -123 -88 -195 -32 -71 -77
-170 -100 -220 -47 -101 -100 -235 -135 -340 -44 -133 -56 -214 -62 -410 -4
-168 -3 -201 16 -290 29 -135 69 -241 162 -432 199 -405 483 -737 879 -1031
120 -89 417 -232 482 -232 10 0 18 -4 18 -9 0 -5 19 -11 43 -14 23 -3 65 -11
92 -18 45 -11 372 -16 485 -7 32 3 35 1 38 -27 2 -16 10 -35 19 -42 8 -7 35
-57 59 -113 49 -113 93 -196 170 -321 30 -47 54 -88 54 -91 0 -3 -57 -54 -127
-115 -368 -317 -504 -485 -557 -689 -38 -146 -3 -224 99 -224 103 0 367 184
760 529 66 58 122 108 125 111 3 3 51 47 106 98 69 62 107 90 117 86 9 -3 22
-2 29 2 7 5 40 7 73 5 33 -1 259 -13 503 -25 360 -18 445 -25 453 -36 6 -11
11 -12 17 -4 5 8 36 8 117 -2 159 -19 791 -19 798 0 5 12 34 20 127 33 19 2
42 7 50 10 8 3 22 7 30 8 16 2 108 21 177 36 45 10 382 78 423 86 14 2 92 18
174 34 122 25 151 28 161 17 7 -7 56 -69 110 -138 310 -394 576 -634 839 -756
99 -45 197 -57 245 -28 88 52 60 240 -78 509 -101 199 -206 297 -388 367 -46
17 -83 35 -83 39 0 5 13 42 30 84 108 272 168 609 141 793 -22 153 -57 233
-193 450 -196 311 -324 557 -378 721 -33 101 -80 278 -86 324 -2 15 -8 53 -13
85 -35 191 -83 583 -86 695 0 4 41 26 90 49 121 54 163 73 350 161 88 41 192
89 230 107 127 59 688 338 810 403 186 98 374 209 468 275 39 28 50 32 62 22
24 -20 99 -3 154 35 l50 33 14 -41 c24 -72 58 -75 104 -8 28 41 49 102 60 170
l8 54 95 -79 c286 -239 779 -607 1240 -927 85 -59 194 -137 242 -172 133 -96
224 -124 304 -90 19 8 47 12 63 9 35 -7 154 33 227 77 113 69 205 190 249 329
63 202 54 503 -17 566 -13 11 -59 35 -103 54 -166 70 -1535 755 -1839 920 -73
40 -122 73 -129 87 -24 54 -299 223 -363 223 -26 0 -145 88 -456 338 -205 164
-392 306 -558 424 l-66 46 -23 93 c-95 374 -264 785 -432 1050 -62 99 -119
176 -119 163 0 -6 7 -59 15 -119 8 -61 19 -171 25 -244 11 -147 14 -581 4
-581 -9 0 -57 30 -175 106 l-96 63 -45 -14 -45 -13 -6 236 c-10 367 -49 557
-129 628 -52 47 -240 102 -753 222 -49 12 -198 47 -330 78 -132 30 -328 78
-435 105 -174 44 -246 63 -411 109 -41 12 -51 11 -82 -3 -156 -75 -344 92
-269 239 22 44 93 114 138 137 146 75 372 76 535 4 58 -25 119 -86 119 -117 0
-23 -36 -50 -69 -50 -13 0 -22 -3 -19 -6 7 -7 233 -62 483 -119 488 -110 572
-130 750 -175 258 -67 419 -121 550 -184 108 -53 187 -115 201 -158 4 -14 11
-17 26 -12 31 10 135 40 353 104 110 32 295 86 410 120 116 34 300 88 410 120
502 146 682 199 708 209 27 10 35 25 19 35 -8 4 -350 62 -1292 217 -201 33
-581 95 -845 139 -264 44 -563 93 -666 110 l-185 30 -1135 -1 c-898 0 -1144
-3 -1184 -13z m3097 -2121 c0 -5 -5 -10 -11 -12 -8 -1 -7 0 0 4 8 4 7 8 -2 15
-11 8 -11 9 -1 6 8 -2 14 -8 14 -13z m770 -395 c363 -253 608 -439 981 -744
134 -109 157 -132 151 -150 -18 -60 -173 -316 -211 -348 -12 -10 -23 -8 -57
11 -48 26 -157 84 -386 206 -308 164 -724 422 -1095 678 -219 151 -202 127
-148 200 105 143 163 320 163 497 l0 49 190 -122 c104 -67 289 -192 412 -277z
m-812 366 c0 -2 -8 -10 -17 -17 -16 -13 -17 -12 -4 4 13 16 21 21 21 13z m30
-10 c0 -2 -7 -7 -16 -10 -8 -3 -12 -2 -9 4 6 10 25 14 25 6z m-83 -20 c-11 -9
-15 -20 -11 -32 5 -16 4 -16 -5 -4 -18 25 -13 46 12 47 20 2 21 1 4 -11z m-67
-19 c0 -2 -12 -14 -27 -28 l-28 -24 24 28 c23 25 31 32 31 24z m35 -17 c3 -5
1 -10 -4 -10 -6 0 -11 5 -11 10 0 6 2 10 4 10 3 0 8 -4 11 -10z m-20 -19 c3
-6 -3 -9 -14 -8 -11 0 -17 5 -15 9 7 11 22 10 29 -1z m187 -23 c-8 -8 -9 -4
-5 13 4 13 8 18 11 10 2 -7 -1 -18 -6 -23z m34 -16 c-11 -10 -15 4 -8 28 l7
25 3 -23 c2 -13 1 -26 -2 -30z m-316 0 c0 -5 -7 -17 -15 -28 -14 -18 -14 -17
-4 9 12 27 19 34 19 19z m307 -64 c-3 -7 -5 -2 -5 12 0 14 2 19 5 13 2 -7 2
-19 0 -25z m-338 13 c10 -7 7 -9 -12 -8 -14 1 -23 5 -20 10 6 9 15 9 32 -2z
m301 -11 c0 -5 -2 -10 -4 -10 -3 0 -8 5 -11 10 -3 6 -1 10 4 10 6 0 11 -4 11
-10z m-357 -54 c4 -10 1 -13 -8 -9 -8 3 -12 9 -9 14 7 12 11 11 17 -5z m-29
-28 c-5 -8 -2 -9 11 -4 15 5 16 4 5 -9 -10 -12 -15 -13 -21 -3 -7 12 -3 28 7
28 3 0 2 -5 -2 -12z m29 -41 c3 -8 -1 -14 -8 -14 -7 0 -11 6 -8 14 3 7 6 13 8
13 2 0 5 -6 8 -13z m297 -82 c7 -9 8 -15 2 -15 -5 0 -12 7 -16 15 -3 8 -4 15
-2 15 2 0 9 -7 16 -15z m-33 -44 c0 -11 -5 -18 -9 -15 -4 3 -5 11 -1 19 7 21
12 19 10 -4z m-30 -23 c-3 -8 -6 -5 -6 6 -1 11 2 17 5 13 3 -3 4 -12 1 -19z
m-4 -41 c-26 -31 -43 -31 -43 -2 0 6 4 4 8 -3 6 -9 14 -6 32 13 34 36 37 31 3
-8z m-309 -12 c3 -8 1 -15 -4 -15 -6 0 -10 7 -10 15 0 8 2 15 4 15 2 0 6 -7
10 -15z m220 -93 c3 -5 -1 -9 -9 -9 -8 0 -15 4 -15 9 0 4 4 8 9 8 6 0 12 -4
15 -8z m-224 -12 c0 -5 -5 -10 -11 -10 -5 0 -7 5 -4 10 3 6 8 10 11 10 2 0 4
-4 4 -10z m411 -91 c409 -292 1091 -709 1517 -929 l103 -53 -47 -48 -46 -47
-42 18 c-371 161 -1012 495 -1431 746 -82 50 -188 112 -235 138 -92 51 -126
74 -119 79 2 2 31 20 64 40 34 20 81 52 105 71 25 20 48 36 52 36 5 0 40 -23
79 -51z m-394 26 c0 -8 -4 -12 -9 -9 -5 3 -6 10 -3 15 9 13 12 11 12 -6z m53
11 c0 -2 -7 -7 -16 -10 -8 -3 -12 -2 -9 4 6 10 25 14 25 6z m65 -5 c9 -16 -9
-20 -23 -5 -10 12 -10 14 2 14 8 0 17 -4 21 -9z m-82 -41 c-3 -11 -9 -20 -15
-20 -5 0 -4 9 2 20 6 11 12 20 14 20 2 0 2 -9 -1 -20z m386 -384 c387 -232
901 -505 1163 -618 l49 -21 -93 -54 c-132 -77 -338 -176 -442 -212 -241 -85
-610 -158 -1061 -210 -49 -6 -112 -13 -138 -16 -31 -4 -46 -2 -42 4 3 6 77 57
164 115 205 136 538 386 540 406 1 3 -41 5 -92 5 -108 1 -193 21 -294 71 -74
37 -153 97 -153 117 0 7 48 126 107 265 79 183 112 251 122 247 7 -3 84 -47
170 -99z m2766 -634 c176 -89 595 -299 930 -467 521 -260 613 -309 632 -337
45 -67 49 -293 8 -433 -42 -140 -140 -267 -246 -319 -110 -53 -157 -44 -274
54 -374 312 -1027 819 -1490 1155 -82 60 -174 126 -203 147 l-53 39 29 37 c57
74 125 199 176 325 l15 37 78 -37 c43 -21 222 -111 398 -201z m-4732 87 l69
-101 -43 -36 c-74 -63 -96 -150 -64 -243 65 -184 333 -189 409 -7 49 115 -21
265 -136 293 -16 4 -28 9 -28 11 0 11 112 184 120 184 10 0 183 -241 234 -327
157 -264 107 -412 -191 -560 l-118 -58 -115 2 c-198 3 -383 56 -451 130 -54
57 -69 100 -69 195 0 129 43 234 188 453 78 119 112 165 121 165 3 -1 37 -46
74 -101z m3431 -235 l29 -36 -13 -72 c-15 -82 -26 -116 -39 -116 -18 0 -51 90
-51 140 0 44 25 120 39 120 3 0 19 -16 35 -36z m696 -169 c258 -182 520 -378
840 -629 231 -181 781 -629 804 -655 19 -21 19 -21 0 -21 -41 0 -96 23 -156
64 -647 440 -1027 719 -1348 988 -108 89 -228 187 -268 216 l-72 54 32 38 c18
21 37 36 43 32 5 -3 62 -43 125 -87z m-7407 -546 c87 -24 159 -138 142 -228
-18 -100 -90 -164 -185 -164 -213 0 -264 317 -63 388 47 17 58 18 106 4z
m3597 -869 c213 -71 380 -204 545 -435 143 -201 248 -472 300 -780 21 -125 23
-165 20 -365 -3 -237 -13 -316 -59 -500 -77 -304 -241 -577 -441 -739 -196
-158 -453 -224 -668 -172 -272 65 -480 222 -666 503 -152 230 -260 557 -292
882 -14 150 -7 374 16 516 9 52 18 109 21 125 15 95 78 271 144 407 130 264
342 474 554 548 130 46 156 50 296 46 120 -3 147 -8 230 -36z"/>
<path d="M5995 5446 c-38 -7 -133 -21 -210 -31 -77 -10 -142 -20 -144 -22 -15
-11 145 -101 192 -108 61 -10 105 12 179 87 62 63 81 90 61 87 -5 -1 -39 -7
-78 -13z"/>
</g>
</svg>
