<svg xmlns="http://www.w3.org/2000/svg" version="1.0" width="1266.000000" height="1017.000000" preserveAspectRatio="xMidYMid meet" style=""><rect id="backgroundrect" width="100%" height="100%" x="0" y="0" fill="none" stroke="none"/>
<metadata>
Created by potrace 1.16, written by Peter Selinger 2001-2019
</metadata>

<g class="currentLayer" style=""><title>Layer 1</title><g transform="translate(0,1017) scale(0.10000000149011612,-0.10000000149011612) " fill="#eb1aeb" stroke="#41e841" id="svg_1" class="selected" fill-opacity="1" stroke-opacity="1" opacity="1" filter="url(#f197)">
<path d="M4235 9860 c-181 -42 -555 -130 -830 -193 -275 -64 -655 -153 -845 -197 -190 -44 -383 -90 -430 -100 -47 -11 -123 -29 -170 -40 -47 -11 -123 -29 -170 -40 -512 -119 -507 -117 -484 -140 12 -12 -16 -8 1739 -281 149 -23 274 -45 278 -49 4 -4 -23 -27 -60 -52 -473 -314 -769 -848 -922 -1663 -41 -217 -55 -325 -45 -335 19 -17 589 20 847 55 174 24 170 27 82 -62 -139 -142 -188 -236 -189 -358 0 -101 20 -144 114 -252 186 -213 565 -462 1079 -710 73 -35 131 -66 129 -69 -3 -2 -160 0 -349 6 -433 12 -1043 13 -1174 0 -55 -6 -149 -15 -210 -20 -314 -30 -507 -103 -600 -229 -43 -59 -27 -138 48 -239 68 -91 318 -227 579 -315 242 -82 683 -191 1258 -312 69 -15 158 -33 198 -42 39 -8 72 -18 72 -22 -4 -111 -44 -450 -71 -601 -17 -92 -25 -119 -45 -137 -13 -12 -24 -26 -24 -31 0 -5 -15 -21 -33 -35 l-34 -26 -52 24 c-85 40 -231 143 -309 219 -41 39 -155 154 -255 254 -389 393 -437 425 -1147 754 -226 105 -296 141 -374 193 -137 92 -202 180 -241 330 -19 76 -19 227 0 329 15 76 14 112 0 64 -7 -20 -151 -354 -206 -476 -42 -92 -169 -371 -204 -447 -145 -315 -195 -515 -195 -785 0 -173 20 -281 81 -445 216 -574 706 -1138 1209 -1390 108 -54 214 -95 247 -95 13 0 23 -4 23 -10 0 -5 18 -10 40 -10 22 0 40 -4 40 -9 0 -21 302 -34 505 -22 l70 5 3 -30 c2 -16 12 -37 22 -46 10 -9 24 -34 30 -55 20 -60 115 -248 187 -366 36 -60 63 -110 62 -111 -2 -2 -67 -57 -144 -124 -406 -350 -536 -527 -552 -754 -6 -75 -5 -77 25 -107 60 -61 151 -37 334 88 172 117 413 315 693 570 118 108 156 136 180 137 37 2 301 -11 664 -32 151 -8 290 -13 308 -9 24 4 42 1 58 -9 13 -9 26 -12 29 -7 6 8 86 5 116 -6 23 -7 107 -11 459 -19 244 -5 325 -4 330 5 8 12 109 38 256 66 50 9 131 25 180 35 50 10 151 31 225 45 74 15 142 28 150 30 8 2 71 14 140 28 219 44 181 55 290 -85 249 -320 468 -540 670 -674 166 -111 268 -154 361 -154 54 0 64 3 90 29 29 30 33 48 29 135 -5 115 -116 381 -212 512 -71 95 -203 185 -335 228 l-52 17 24 62 c13 34 28 75 35 91 27 71 73 240 95 352 18 89 25 157 26 255 1 223 -29 311 -203 589 -362 580 -445 821 -523 1510 -29 264 -32 300 -20 310 6 5 103 51 215 103 460 211 541 249 910 433 385 192 635 329 785 430 52 35 83 50 89 44 26 -26 128 -1 173 42 27 25 35 19 52 -34 14 -43 44 -58 70 -34 36 32 73 118 85 193 l11 75 100 -83 c286 -241 778 -610 1210 -909 83 -57 188 -133 235 -168 47 -36 113 -78 147 -94 66 -31 66 -31 258 -14 117 11 250 80 339 177 66 71 127 191 151 299 25 112 31 309 11 393 -22 94 -36 111 -119 146 -119 49 -690 332 -1232 609 -673 344 -747 384 -765 417 -33 59 -212 172 -340 215 -75 25 -92 37 -425 304 -238 191 -450 353 -602 461 l-71 50 -31 120 c-88 334 -229 691 -369 935 -47 81 -163 252 -169 247 -3 -3 2 -57 11 -119 29 -206 50 -818 28 -818 -4 0 -66 37 -138 81 -129 82 -129 82 -175 72 l-46 -9 -6 226 c-12 445 -63 622 -192 672 -105 41 -329 100 -786 208 -548 129 -800 192 -987 245 -134 38 -134 38 -180 22 -26 -10 -64 -17 -85 -17 -38 0 -106 28 -141 59 -50 44 -71 143 -42 199 19 38 105 116 153 140 106 54 287 68 426 33 96 -25 146 -51 185 -96 49 -56 42 -84 -28 -102 -29 -8 -31 -11 -15 -16 38 -11 361 -87 625 -147 723 -164 984 -239 1175 -339 65 -33 146 -102 170 -143 9 -17 15 -16 95 8 204 60 1188 347 1550 450 146 42 271 82 278 89 11 10 11 14 0 22 -11 9 -804 143 -2589 438 l-396 65 -1139 -1 -1139 -1 -330 -78z m3682 -2136 c335 -217 633 -425 923 -643 311 -235 680 -537 680 -558 0 -35 -137 -269 -202 -345 l-23 -27 -300 162 c-330 178 -396 215 -625 358 -300 186 -790 514 -790 528 0 4 20 33 44 65 99 132 154 291 157 447 1 49 5 89 10 89 4 0 61 -34 126 -76z m-204 -723 c427 -295 945 -613 1339 -822 95 -50 175 -93 178 -96 2 -2 -17 -24 -42 -49 l-45 -46 -159 72 c-356 163 -863 430 -1219 640 -77 46 -205 121 -285 167 -80 47 -150 90 -157 96 -10 10 -1 18 40 40 29 15 79 47 112 72 33 25 61 45 63 45 2 0 81 -53 175 -119z m-101 -307 c400 -242 933 -526 1186 -634 28 -12 52 -25 52 -29 -1 -3 -15 -13 -33 -22 -18 -8 -84 -44 -147 -80 -124 -70 -294 -145 -412 -183 -176 -55 -533 -128 -793 -160 -177 -23 -370 -46 -378 -46 -25 0 11 29 147 119 179 117 277 189 435 315 l113 91 -98 7 c-55 3 -126 14 -158 23 -131 35 -282 130 -280 176 1 13 43 119 94 234 51 116 99 225 106 243 8 17 16 32 19 32 2 0 68 -39 147 -86z m2753 -635 c226 -115 672 -340 992 -500 380 -190 590 -300 603 -316 76 -97 57 -401 -36 -570 -62 -111 -166 -200 -266 -223 -45 -11 -52 -10 -101 14 -28 14 -95 62 -147 107 -307 261 -948 758 -1467 1138 -123 90 -223 165 -223 167 0 2 25 42 56 89 47 72 124 222 147 288 4 9 12 17 19 17 7 0 198 -95 423 -211z m-4278 71 c90 -122 168 -248 206 -330 38 -81 43 -182 13 -243 -42 -85 -171 -181 -333 -247 l-83 -34 -132 13 c-267 26 -391 81 -444 196 -41 88 -30 217 29 347 46 99 231 388 254 395 10 4 143 -176 143 -194 0 -4 -16 -21 -35 -36 -51 -40 -77 -99 -78 -171 -1 -69 14 -106 65 -156 43 -43 85 -60 151 -60 62 0 110 17 149 55 113 107 85 298 -53 358 -26 12 -49 26 -49 31 0 9 59 110 93 159 11 16 23 25 27 20 4 -4 39 -51 77 -103z m3043 -292 c0 -35 -29 -160 -40 -172 -6 -6 -20 13 -36 48 -30 67 -30 145 0 191 l18 27 29 -33 c15 -19 28 -46 29 -61z m726 -156 c250 -179 353 -255 554 -411 362 -280 983 -785 1030 -836 l25 -28 -40 8 c-53 9 -102 35 -204 109 -47 34 -129 91 -181 126 -330 221 -805 575 -1075 800 -110 92 -231 191 -270 220 -38 30 -74 57 -79 61 -8 7 40 79 54 79 4 0 88 -58 186 -128z m-7426 -507 c65 -33 110 -114 110 -196 0 -59 -47 -138 -99 -166 -166 -88 -342 97 -260 273 46 97 157 137 249 89z m3386 -826 c226 -25 421 -129 596 -318 265 -287 427 -717 445 -1187 20 -526 -138 -996 -433 -1288 -171 -169 -355 -248 -584 -249 -134 -1 -225 20 -355 83 -473 228 -790 893 -762 1594 18 446 163 833 407 1090 145 152 312 243 507 276 69 11 74 11 179 -1z" id="svg_2" fill="#eb1aeb" fill-opacity="1" stroke="#41e841" stroke-opacity="1" opacity="1" filter="url(#f197)"/>
<path d="M6035 5470 c-22 -4 -65 -11 -95 -15 -30 -3 -80 -10 -110 -15 -30 -5 -83 -12 -118 -15 -74 -8 -72 -15 17 -70 72 -43 134 -58 185 -44 54 15 214 175 169 168 -5 -1 -26 -5 -48 -9z" id="svg_3" fill="#eb1aeb" fill-opacity="1" stroke="#41e841" stroke-opacity="1" opacity="1" filter="url(#f197)"/>
</g></g><defs><filter id="f197" xmlns:inkscape="http://www.inkscape.org/namespaces/inkscape" inkscape:menu="Transparency utilities" inkscape:label="Alpha repaint" inkscape:menu-tooltip="Repaint anything monochrome">
            <feFlood flood-color="#ff0069" result="result1"/>
            <feComposite operator="in" in2="SourceGraphic" result="result2"/>
        </filter></defs></svg>